<?xml version="1.0" standalone="no"?><!DOCTYPE svg PUBLIC "-//W3C//DTD SVG 1.1//EN" "http://www.w3.org/Graphics/SVG/1.1/DTD/svg11.dtd"><svg t="1670689349451" class="icon" viewBox="0 0 1024 1024" version="1.1" xmlns="http://www.w3.org/2000/svg" p-id="2666" data-darkreader-inline-fill="" xmlns:xlink="http://www.w3.org/1999/xlink" width="200" height="200"><path d="M915.692308 78.769231h-59.076923c-15.753846 0-29.538462 13.784615-29.538462 29.538461v137.846154c0 17.723077-9.846154 25.6-23.630769 13.784616-5.907692-7.876923-11.815385-13.784615-19.692308-19.692308-98.461538-98.461538-236.307692-139.815385-378.092308-112.246154-49.230769 9.846154-96.492308 29.538462-137.846153 57.107692-120.123077 78.769231-189.046154 206.769231-191.015385 344.615385-1.969231 106.338462 39.384615 212.676923 114.215385 289.476923 78.769231 82.707692 185.107692 128 299.323077 128 100.430769 0 194.953846-35.446154 269.784615-98.461538 13.784615-11.815385 13.784615-31.507692 1.969231-43.323077l-41.353846-41.353847c-9.846154-9.846154-27.569231-11.815385-39.384616-1.96923-70.892308 59.076923-167.384615 82.707692-263.876923 59.076923-25.6-5.907692-51.2-17.723077-74.830769-31.507693C230.4 720.738462 177.230769 590.769231 208.738462 460.8c5.907692-25.6 17.723077-51.2 31.507692-74.830769C295.384615 289.476923 391.876923 236.307692 494.276923 236.307692c78.769231 0 153.6 31.507692 208.738462 86.646154 9.846154 7.876923 17.723077 17.723077 23.630769 27.569231 5.907692 15.753846-7.876923 23.630769-25.6 23.630769h-137.846154c-15.753846 0-29.538462 13.784615-29.538462 29.538462v61.046154c0 15.753846 11.815385 27.569231 27.569231 27.56923h360.369231c13.784615 0 25.6-11.815385 25.6-25.6V108.307692C945.230769 92.553846 931.446154 78.769231 915.692308 78.769231z" p-id="2667"></path></svg>