<?xml version="1.0" standalone="no"?><!DOCTYPE svg PUBLIC "-//W3C//DTD SVG 1.1//EN" "http://www.w3.org/Graphics/SVG/1.1/DTD/svg11.dtd"><svg class="icon" width="200px" height="200.00px" viewBox="0 0 1024 1024" version="1.1" xmlns="http://www.w3.org/2000/svg"><path fill="#2c2c2c" d="M766.138182 0H93.090909a93.090909 93.090909 0 0 0-93.090909 93.090909v837.818182a93.090909 93.090909 0 0 0 93.090909 93.090909h837.818182a93.090909 93.090909 0 0 0 93.090909-93.090909V186.181818z m-139.636364 884.363636a139.636364 139.636364 0 1 1 139.636364-139.636363 139.636364 139.636364 0 0 1-137.774546 139.636363z m139.636364-535.272727a46.545455 46.545455 0 0 1-46.545455 46.545455H209.454545a46.545455 46.545455 0 0 1-46.545454-46.545455v-139.636364a46.545455 46.545455 0 0 1 46.545454-46.545454h512a46.545455 46.545455 0 0 1 46.545455 46.545454z" /></svg>