<?xml version="1.0" standalone="no"?><!DOCTYPE svg PUBLIC "-//W3C//DTD SVG 1.1//EN" "http://www.w3.org/Graphics/SVG/1.1/DTD/svg11.dtd"><svg t="1670659483741" class="icon" viewBox="0 0 1024 1024" version="1.1" xmlns="http://www.w3.org/2000/svg" p-id="11628" data-darkreader-inline-fill="" xmlns:xlink="http://www.w3.org/1999/xlink" width="200" height="200"><path d="M896 192H781.1c-30.8 0-57.2-21.9-62.9-52.2L706.5 77c-1.4-7.6-8-13-15.7-13H333.3c-7.7 0-14.3 5.5-15.7 13l-11.8 62.7c-5.7 30.3-32.1 52.2-62.9 52.2H128C57.3 192 0 249.3 0 320v512c0 70.7 57.3 128 128 128h768c70.7 0 128-57.3 128-128V320c0-70.7-57.3-128-128-128zM160 352c-17.7 0-32-14.3-32-32 0-8.8 3.6-16.8 9.4-22.6 5.8-5.8 13.8-9.4 22.6-9.4h64c17.7 0 32 14.3 32 32 0 8.8-3.6 16.8-9.4 22.6-5.8 5.8-13.8 9.4-22.6 9.4h-64z m352 512c-150.2 0-272-121.8-272-272s121.8-272 272-272 272 121.8 272 272-121.8 272-272 272z" p-id="11629"></path><path d="M720 592c0 55.6-21.6 107.8-60.9 147.1S567.6 800 512 800s-107.8-21.6-147.1-60.9S304 647.6 304 592s21.6-107.8 60.9-147.1S456.4 384 512 384s107.8 21.6 147.1 60.9S720 536.4 720 592z" p-id="11630"></path></svg>